<svg version="1.2" xmlns="http://www.w3.org/2000/svg" viewBox="0 0 1370 1314" width="1370" height="1314">
	<style>
		.s0 { fill: none;stroke: #000000;stroke-miterlimit:100;stroke-width: 25 } 
	</style>
	<path id="Warstwa 2" class="s0" d="m501.25 1653.14c27.06-136.04-15.84-400.54 237.99-400.01 253.84 0.53 445.01-77.76 479.04-243.99 34.04-166.22-89.31-356.79 112.7-450.07 202.01-93.27 17.37-528.37-4.99-595.05"/>
	<path id="Warstwa 2 copy 5" class="s0" d="m588 1707.12c27.06-136.05-15.84-400.55 237.99-400.01 253.84 0.53 445.01-77.76 479.04-243.99 34.04-166.22-89.31-356.8 112.7-450.07 202.01-93.27 17.37-528.37-4.99-595.05"/>
	<path id="Warstwa 2 copy" class="s0" d="m417.28 1561.6c27.06-136.04-15.85-400.54 237.99-400.01 253.84 0.53 445.01-77.76 479.04-243.98 34.04-166.23-89.31-356.8 112.7-450.07 202.01-93.28 17.37-528.38-4.99-595.06"/>
	<path id="Warstwa 2 copy 2" class="s0" d="m341.13 1483.46c27.06-136.04-15.84-400.54 237.99-400.01 253.84 0.53 445.01-77.76 479.04-243.98 34.04-166.23-89.31-356.8 112.7-450.08 202.01-93.27 17.37-528.37-4.99-595.05"/>
	<path id="Warstwa 2 copy 3" class="s0" d="m259.38 1408.15c27.06-136.04-15.84-400.54 238-400.01 253.83 0.53 445-77.76 479.04-243.98 34.03-166.22-89.32-356.8 112.69-450.07 202.01-93.27 17.37-528.38-4.99-595.06"/>
	<path id="Warstwa 2 copy 4" class="s0" d="m177.61 1327.23c27.06-136.04-15.85-400.54 237.99-400.01 253.84 0.54 445.01-77.76 479.04-243.98 34.04-166.22-89.31-356.8 112.7-450.07 202.01-93.27 17.37-528.38-4.99-595.05"/>
</svg>